<svg id="Layer_1" data-name="Layer 1" xmlns="http://www.w3.org/2000/svg" width="1.3in" height="0.4in" viewBox="0 0 90 26.3"><title>Artboard 1</title><rect width="90" height="26.33" fill="#e31937"/><path d="M16,16.9H13.2v-.4h.9V13.3H9.8v3.2h.9v.4H7.9v-.4h.9V9.6H7.9V9.2h2.8v.4H9.8v3.1h4.3V9.6h-.9V9.2H16v.4h-.9v6.9H16Z" fill="#fff"/><path d="M17.8,13.7A3.4,3.4,0,0,1,21,10.4a3.4,3.4,0,0,1,0,6.7,3.3,3.3,0,0,1-3.2-3.4m1.1,0c0,1.6,1,2.8,2.1,2.8s2.1-1.2,2.1-2.7S22.2,11,21,11a2.5,2.5,0,0,0-2.1,2.7m-1.1,0A3.4,3.4,0,0,1,21,10.4a3.4,3.4,0,0,1,0,6.7,3.3,3.3,0,0,1-3.2-3.4m1.1,0c0,1.6,1,2.8,2.1,2.8s2.1-1.2,2.1-2.7S22.2,11,21,11a2.5,2.5,0,0,0-2.1,2.7" fill="#fff"/><path d="M34.8,16.9H31.7v-.5h1V11.8L30.2,17,28,12.1v4.3h1v.5H26.2v-.5h1.1V11.1H26.2v-.5h2.1l2.2,4.6,2.2-4.6h2.1v.5h-1v5.3h1Z" fill="#fff"/><path d="M42.2,16.9H37.3v-.5h1.1V11.1H37.3v-.5h4.3v-.3h.5v1.6h-.4v-.8H39.4v2.3h1.8v-.6h.5v1.9h-.5V14H39.4v2.4h2.3v-.8h.5Z" fill="#fff"/><path d="M46.3,17h-.6V14.9h.6v.9a2.2,2.2,0,0,0,1.5.6c1,0,1.6-.5,1.6-1.2s-.5-1.2-1.7-1.8-2-1.4-2-2.3A2.2,2.2,0,0,1,48,9a2.1,2.1,0,0,1,1.4.4V8.9h.5v2h-.5v-.8A2.2,2.2,0,0,0,48,9.6a1.2,1.2,0,0,0-1.3,1.2c0,.6.4.9,1.8,1.8s1.9,1.4,1.9,2.3a2.2,2.2,0,0,1-2.3,2.2,2.8,2.8,0,0,1-1.8-.6V17Z" fill="#fff"/><path d="M58.1,16.9h-5v-.5h1.1V11.1H53.1v-.5h4.3v-.3H58v1.6h-.5v-.8H55.2v2.3H57v-.6h.5v1.9H57V14H55.2v2.4h2.3v-.8h.6Z" fill="#fff"/><path d="M67.3,17h-.4l-4-4.6v4h1v.5H61.2v-.5h1V11.5l-.3-.4H61v-.5h1.7l3.9,4.5v-4h-1v-.5h2.7v.5h-1Z" fill="#fff"/><path d="M71.4,17h-.5V15.3h.5V16a2.7,2.7,0,0,0,1.4.5,1,1,0,0,0,1.1-1c0-.5-.3-.8-1.5-1.4s-1.6-1.1-1.6-1.9a1.9,1.9,0,0,1,2-1.8,2.7,2.7,0,0,1,1.2.3v-.3h.5V12H74v-.6a2.1,2.1,0,0,0-1.1-.4c-.7,0-1.1.4-1.1.9s.2.6.6.8l1,.6c1.2.7,1.5,1.1,1.5,2a1.9,1.9,0,0,1-2,1.8,2.3,2.3,0,0,1-1.5-.5Z" fill="#fff"/><path d="M82.2,16.9H77.3v-.5h1.1V11.1H77.3v-.5h4.3v-.3h.6v1.6h-.5v-.8H79.4v2.3h1.8v-.6h.5v1.9h-.5V14H79.4v2.4h2.3v-.8h.5Z" fill="#fff"/></svg>